<svg width="54" height="34" viewBox="0 0 54 34" fill="none" xmlns="http://www.w3.org/2000/svg">
<mask id="path-1-inside-1_1597_3942" fill="white">
<path d="M14.8541 0.078125H38.9444L39.8351 0.199589L40.6854 0.442516L41.3332 0.725932L41.981 1.13081L42.6288 1.65715L43.1146 2.1835L43.479 2.70984L43.7624 3.1957L44.0054 3.80302L44.2483 4.65326L44.8556 7.52791L45.1795 9.02596L45.22 9.10694L46.5966 9.14742L46.5561 7.81132V7.04205L46.6371 6.75863L46.8395 6.5562L47.0825 6.43473L51.9005 6.39424L53.0342 6.43473L53.2771 6.59668L53.4391 6.79912L53.4795 7.00156V10.686L53.3581 11.0099L53.1556 11.1718L52.5078 11.3338L50.119 11.7387L47.4064 12.184H47.0825L46.7586 12.0221L46.6371 11.8601L46.5966 11.7387V10.443H45.4629L45.7868 11.7387L46.1512 13.3177L46.3537 13.4796L46.8395 13.763L47.4064 14.1679L47.8922 14.6133L48.2971 15.0182L48.7829 15.7065L49.1069 16.2733L49.4308 17.0426L49.6332 17.8523L49.7547 18.7431L50.119 22.8728L50.2 24.2899V31.0919L50.0786 31.8612L49.9166 32.266L49.6332 32.7114L49.1473 33.1973L48.7829 33.4402L48.2566 33.6426L47.9327 33.7236L43.3981 33.7641H42.1834L41.6166 33.6831L40.9688 33.4402L40.5234 33.1568L40.1185 32.7519L39.7946 32.1851L39.6327 31.7397L39.5517 31.2133L39.5112 29.9177H14.3277L14.2872 31.1729L14.2062 31.7397L13.9633 32.347L13.5584 32.9138L13.2345 33.1973L12.7892 33.4807L12.2223 33.6831L11.615 33.7641H6.27061L5.74427 33.6831L5.17744 33.4807L4.77256 33.2377L4.36768 32.8734L4.12475 32.5494L3.88183 32.0636L3.76036 31.5777L3.71987 31.2133L3.67939 29.3509V24.7353L3.76036 22.9133L4.12475 18.8645L4.24622 17.9333L4.44866 17.1235L4.6511 16.5972L4.975 15.9494L5.37988 15.3421L5.74427 14.8967L6.35159 14.2894L7.08037 13.763L7.72818 13.3987L7.84964 12.9128L8.3355 10.443L7.28281 10.4835V11.5767L7.12086 11.9411L6.83745 12.1435L6.55403 12.184L4.81305 11.9006L1.12865 11.2933L0.602303 11.1313L0.399863 10.8884L0.359375 10.7265V6.83961L0.480839 6.63717L0.804742 6.43473L1.16913 6.39424H6.39208L6.83745 6.43473L7.08037 6.59668L7.24232 6.83961L7.28281 7.48742V9.14742L8.61891 9.10694L8.82135 8.25669L9.42867 5.42253L9.75258 4.04594L9.9955 3.43862L10.2789 2.87179L10.6028 2.38594L11.0887 1.81911L11.3721 1.53569L11.9389 1.09032L12.6677 0.644956L13.4775 0.321053L14.1658 0.159101L14.8541 0.078125Z"/>
</mask>
<path d="M14.8541 0.078125H38.9444L39.8351 0.199589L40.6854 0.442516L41.3332 0.725932L41.981 1.13081L42.6288 1.65715L43.1146 2.1835L43.479 2.70984L43.7624 3.1957L44.0054 3.80302L44.2483 4.65326L44.8556 7.52791L45.1795 9.02596L45.22 9.10694L46.5966 9.14742L46.5561 7.81132V7.04205L46.6371 6.75863L46.8395 6.5562L47.0825 6.43473L51.9005 6.39424L53.0342 6.43473L53.2771 6.59668L53.4391 6.79912L53.4795 7.00156V10.686L53.3581 11.0099L53.1556 11.1718L52.5078 11.3338L50.119 11.7387L47.4064 12.184H47.0825L46.7586 12.0221L46.6371 11.8601L46.5966 11.7387V10.443H45.4629L45.7868 11.7387L46.1512 13.3177L46.3537 13.4796L46.8395 13.763L47.4064 14.1679L47.8922 14.6133L48.2971 15.0182L48.7829 15.7065L49.1069 16.2733L49.4308 17.0426L49.6332 17.8523L49.7547 18.7431L50.119 22.8728L50.2 24.2899V31.0919L50.0786 31.8612L49.9166 32.266L49.6332 32.7114L49.1473 33.1973L48.7829 33.4402L48.2566 33.6426L47.9327 33.7236L43.3981 33.7641H42.1834L41.6166 33.6831L40.9688 33.4402L40.5234 33.1568L40.1185 32.7519L39.7946 32.1851L39.6327 31.7397L39.5517 31.2133L39.5112 29.9177H14.3277L14.2872 31.1729L14.2062 31.7397L13.9633 32.347L13.5584 32.9138L13.2345 33.1973L12.7892 33.4807L12.2223 33.6831L11.615 33.7641H6.27061L5.74427 33.6831L5.17744 33.4807L4.77256 33.2377L4.36768 32.8734L4.12475 32.5494L3.88183 32.0636L3.76036 31.5777L3.71987 31.2133L3.67939 29.3509V24.7353L3.76036 22.9133L4.12475 18.8645L4.24622 17.9333L4.44866 17.1235L4.6511 16.5972L4.975 15.9494L5.37988 15.3421L5.74427 14.8967L6.35159 14.2894L7.08037 13.763L7.72818 13.3987L7.84964 12.9128L8.3355 10.443L7.28281 10.4835V11.5767L7.12086 11.9411L6.83745 12.1435L6.55403 12.184L4.81305 11.9006L1.12865 11.2933L0.602303 11.1313L0.399863 10.8884L0.359375 10.7265V6.83961L0.480839 6.63717L0.804742 6.43473L1.16913 6.39424H6.39208L6.83745 6.43473L7.08037 6.59668L7.24232 6.83961L7.28281 7.48742V9.14742L8.61891 9.10694L8.82135 8.25669L9.42867 5.42253L9.75258 4.04594L9.9955 3.43862L10.2789 2.87179L10.6028 2.38594L11.0887 1.81911L11.3721 1.53569L11.9389 1.09032L12.6677 0.644956L13.4775 0.321053L14.1658 0.159101L14.8541 0.078125Z" fill="black" stroke="black" stroke-width="4" mask="url(#path-1-inside-1_1597_3942)"/>
<path d="M44.1006 28.9365L44.0352 28.8213L43.873 28.5381L43.8076 28.4248L43.6963 28.3574L43.4932 28.2354L43.4033 28.1816L43.2979 28.168L42.9746 28.1279L42.9443 28.124H42.915L34.8223 28.085L34.7881 25.6211V25.5752L34.7783 25.5303L34.6973 25.125L34.6631 24.9521L34.5273 24.8389L34.2842 24.6367L34.1572 24.5303L33.9912 24.5215L33.2217 24.4805H20.3779L20.3555 24.4824L19.9102 24.5225L19.8018 24.5322L19.708 24.5859L19.4238 24.748L19.334 24.7998L19.2725 24.8828L19.1504 25.0449L19.083 25.1348L19.0605 25.2461L19.0195 25.4492L19.0107 25.4971V28.085L10.6816 28.124H10.5918L10.5088 28.1562L10.1846 28.2773L10.042 28.3311L9.95312 28.4551L9.75098 28.7383L9.65723 28.8682V29.5264L9.72363 29.6416L9.88574 29.9248L9.95312 30.043L10.0713 30.1104L10.3545 30.2725L10.4658 30.3359L10.5947 30.3389L12.4922 30.3711V31.165L12.3857 31.459L12.2168 31.6826L12.0273 31.8457L11.8145 31.9521L11.7275 31.9707H6.32617L6.09375 31.9189L5.88379 31.792L5.86816 31.7607L5.72949 31.4844H5.62305L5.56934 31.3965L5.51562 31.125V24.292L5.59473 22.7158L5.87695 19.4863L5.99609 18.375L6.14355 17.7139L6.32422 17.2051L6.65137 16.5869L7.01758 16.1104L7.14551 15.9658H7.36035L7.46387 15.6504L7.96777 15.2734L8.47949 14.9814L8.98633 14.7637L9.68555 14.5801L10.3047 14.5078H43.7217L44.3682 14.6152L45.0273 14.835L45.624 15.1328L46.1309 15.46L46.5049 15.7969L46.668 15.96L46.9678 16.2969L47.2959 16.8086L47.5879 17.3906L47.8086 18.0898L47.9219 18.8848L48.2852 23L48.3643 24.4941V31.0439L48.3057 31.334L48.2012 31.543L48.0439 31.7266L47.7822 31.9014L47.5977 31.9707H42.0303L41.7588 31.8721L41.4453 31.5869L41.3623 31.4424L41.2666 30.9268V30.3691L42.8818 30.3389L42.9258 30.3379L43.375 30.248L43.499 30.2227L43.5967 30.1416L43.8398 29.9395L43.9199 29.8721L43.9668 29.7783L44.0479 29.6172L44.1006 29.5117V28.9365Z" fill="black" stroke="white"/>
<path d="M38.7578 1.82812L39.3682 1.89941L39.9727 2.07715L40.5605 2.37109L40.96 2.625L41.3242 2.91699L41.6357 3.22852L41.96 3.69629L42.2461 4.23438L42.4678 4.97754L42.8281 6.65527L43.8809 11.6738V11.6768L44 12.2344L43.7783 12.2461H40.7676L9.80566 12.2051L11.1738 5.68164L11.1729 5.68066L11.4053 4.6748L11.624 4.08887L11.875 3.62402L12.2344 3.15625L12.666 2.72461L13.0146 2.48047L13.3564 2.29199L13.6357 2.15137L14.1338 1.97363L14.7021 1.86719L37.7715 1.82812H38.7578Z" fill="black" stroke="white"/>
<path d="M44.3545 18.2812L44.7637 18.3623L45.0596 18.4854L45.3457 18.6855L45.4199 18.7441L45.6768 19.1025L45.8779 19.5928L45.9639 20.0488V20.6514L45.8486 21.166L45.626 21.6406L45.3896 21.9297L45.1973 22.0977L44.9736 22.2314L44.5322 22.3701L44.3223 22.3945H38.2412L37.874 22.3154L37.4932 22.1523L37.2207 21.9619L36.9629 21.7305L36.7217 21.3545L36.5547 20.9385L36.5459 20.8818V20.4277L36.6279 20.1602L36.7715 19.9229L36.835 19.8457L37.0371 19.7041L37.2617 19.6143L38.0078 19.4355L40.9385 18.8701L43.8555 18.3066L44.0391 18.2812H44.3545Z" fill="white" stroke="white" stroke-width="2"/>
<path d="M10.3535 18.3672L11.6855 18.5957V18.5947L14.8174 19.1973V19.1982L16.7881 19.5918L17.1904 19.7158L17.3984 19.8193L17.5645 19.9688L17.7119 20.2646L17.7383 20.3652V20.6826L17.6318 21.1074L17.4043 21.5615L17.1846 21.8369L16.9795 22.042L16.6426 22.25L16.3691 22.3496L16.0996 22.3994H10.0283L9.65918 22.3418L9.25293 22.207L9.00098 22.0469L8.76953 21.8154L8.54883 21.4287L8.4043 21.0508L8.32031 20.6289V20.0898L8.40625 19.6309L8.58008 19.1982L8.75098 18.9287L9.03223 18.6475L9.27051 18.5039L9.59668 18.3682L9.60645 18.3672H10.3535Z" fill="white" stroke="white" stroke-width="2"/>
<path d="M32.0322 27.2344V27.583H21.8047V27.2344H32.0322Z" fill="white" stroke="white" stroke-width="2"/>
<path d="M44.2432 19.5215L44.4375 19.6025L44.5293 19.6836L44.665 19.8965L44.7422 20.1484V20.5361L44.6709 20.7666L44.5459 20.9453L44.4277 21.0488L44.3057 21.1035H38.2842L38.2256 21.0801L37.9551 20.832L37.9326 20.7998L38.209 20.7256L41.3271 20.0869L41.334 20.0859L43.9746 19.5244L44.0791 19.5068L44.2432 19.5215Z" fill="black" stroke="black" stroke-width="2"/>
<path d="M10.3438 19.5781L14.4512 20.3672V20.3682L16.3848 20.7617L16.4023 20.7666L16.3438 20.8555L16.2041 20.9951L15.9951 21.1006H10.0273L9.92773 21.0605L9.7959 20.958L9.67578 20.7861L9.58398 20.5342L9.57812 20.502V20.1973L9.64355 19.9375L9.74805 19.7266L9.82617 19.6582L9.98828 19.5781H10.3438Z" fill="white" stroke="black" stroke-width="2"/>
<path d="M51.1436 8.6875V9.24121L48.8115 9.62598V8.6875H51.1436Z" fill="black" stroke="black" stroke-width="2"/>
<path d="M4.98828 8.6875V9.61719L4.10254 9.45703L4.0957 9.45508L4.08789 9.4541L2.65625 9.21484V8.6875H4.98828Z" fill="white" stroke="black" stroke-width="2"/>
</svg>
