<svg width="20" height="20" viewBox="0 0 20 20" fill="none" xmlns="http://www.w3.org/2000/svg">
<path d="M1.09805 18H11.148C11.3682 18.5804 11.7576 19.0813 12.2657 19.4379C12.7739 19.7945 13.3774 19.9903 13.998 20C14.6136 19.9942 15.2124 19.7991 15.7133 19.4413C16.2142 19.0836 16.5929 18.5804 16.798 18H18.898C19.036 18.0067 19.1739 17.9862 19.3038 17.9395C19.4338 17.8929 19.5533 17.8211 19.6555 17.7282C19.7577 17.6353 19.8405 17.5232 19.8993 17.3982C19.9581 17.2733 19.9916 17.1379 19.998 17C19.9916 16.8621 19.9581 16.7267 19.8993 16.6018C19.8405 16.4768 19.7577 16.3647 19.6555 16.2718C19.5533 16.1789 19.4338 16.1071 19.3038 16.0605C19.1739 16.0138 19.036 15.9933 18.898 16H16.798C16.5929 15.4196 16.2142 14.9164 15.7133 14.5587C15.2124 14.2009 14.6136 14.0058 13.998 14C13.3774 14.0097 12.7739 14.2055 12.2657 14.5621C11.7576 14.9187 11.3682 15.4196 11.148 16H1.09805C0.960122 15.9933 0.822226 16.0138 0.692253 16.0605C0.562281 16.1071 0.442785 16.1789 0.340608 16.2718C0.238431 16.3647 0.15558 16.4768 0.0967979 16.6018C0.0380163 16.7267 0.00445868 16.8621 -0.00195312 17C0.00445868 17.1379 0.0380163 17.2733 0.0967979 17.3982C0.15558 17.5232 0.238431 17.6353 0.340608 17.7282C0.442785 17.8211 0.562281 17.8929 0.692253 17.9395C0.822226 17.9862 0.960122 18.0067 1.09805 18ZM13.998 16C14.1958 16 14.3892 16.0586 14.5536 16.1685C14.7181 16.2784 14.8462 16.4346 14.9219 16.6173C14.9976 16.8 15.0174 17.0011 14.9788 17.1951C14.9402 17.3891 14.845 17.5673 14.7052 17.7071C14.5653 17.847 14.3871 17.9422 14.1931 17.9808C13.9992 18.0194 13.7981 17.9996 13.6154 17.9239C13.4326 17.8482 13.2765 17.72 13.1666 17.5556C13.0567 17.3911 12.998 17.1978 12.998 17C12.998 16.7348 13.1034 16.4804 13.2909 16.2929C13.4785 16.1054 13.7328 16 13.998 16Z" fill="#767676"/>
<path d="M1.09766 11H3.14766C3.36785 11.5804 3.75723 12.0813 4.26536 12.4379C4.77349 12.7945 5.37697 12.9903 5.99766 13C6.61318 12.9942 7.212 12.7991 7.7129 12.4413C8.21379 12.0836 8.5925 11.5804 8.79766 11H18.8977C19.1629 11 19.4172 10.8946 19.6048 10.7071C19.7923 10.5196 19.8977 10.2652 19.8977 10C19.8977 9.73478 19.7923 9.48043 19.6048 9.29289C19.4172 9.10536 19.1629 9 18.8977 9H8.79766C8.5925 8.41965 8.21379 7.91644 7.7129 7.55866C7.212 7.20088 6.61318 7.00584 5.99766 7C5.37697 7.0097 4.77349 7.20551 4.26536 7.5621C3.75723 7.91868 3.36785 8.4196 3.14766 9H1.09766C0.83244 9 0.578086 9.10536 0.39055 9.29289C0.203013 9.48043 0.0976562 9.73478 0.0976562 10C0.0976562 10.2652 0.203013 10.5196 0.39055 10.7071C0.578086 10.8946 0.83244 11 1.09766 11ZM5.99766 9C6.19544 9 6.38878 9.05865 6.55323 9.16853C6.71768 9.27841 6.84585 9.43459 6.92154 9.61732C6.99722 9.80004 7.01703 10.0011 6.97844 10.1951C6.93986 10.3891 6.84462 10.5673 6.70476 10.7071C6.56491 10.847 6.38673 10.9422 6.19275 10.9808C5.99877 11.0194 5.7977 10.9996 5.61497 10.9239C5.43225 10.8482 5.27607 10.72 5.16619 10.5556C5.05631 10.3911 4.99766 10.1978 4.99766 10C4.99766 9.73478 5.10301 9.48043 5.29055 9.29289C5.47809 9.10536 5.73244 9 5.99766 9Z" fill="#767676"/>
<path d="M1.09766 4H9.64766C9.86785 4.5804 10.2572 5.08132 10.7654 5.4379C11.2735 5.79449 11.877 5.9903 12.4977 6C13.1132 5.99416 13.712 5.79912 14.2129 5.44134C14.7138 5.08356 15.0925 4.58035 15.2977 4H18.8977C19.1629 4 19.4172 3.89464 19.6048 3.70711C19.7923 3.51957 19.8977 3.26522 19.8977 3C19.8977 2.73478 19.7923 2.48043 19.6048 2.29289C19.4172 2.10536 19.1629 2 18.8977 2H15.2977C15.0925 1.41965 14.7138 0.916445 14.2129 0.558664C13.712 0.200884 13.1132 0.00584269 12.4977 0C11.877 0.00969553 11.2735 0.205513 10.7654 0.562096C10.2572 0.918678 9.86785 1.4196 9.64766 2H1.09766C0.83244 2 0.578086 2.10536 0.39055 2.29289C0.203013 2.48043 0.0976562 2.73478 0.0976562 3C0.0976562 3.26522 0.203013 3.51957 0.39055 3.70711C0.578086 3.89464 0.83244 4 1.09766 4ZM12.4977 2C12.6954 2 12.8888 2.05865 13.0532 2.16853C13.2177 2.27841 13.3458 2.43459 13.4215 2.61732C13.4972 2.80004 13.517 3.00111 13.4784 3.19509C13.4399 3.38907 13.3446 3.56726 13.2048 3.70711C13.0649 3.84696 12.8867 3.9422 12.6927 3.98079C12.4988 4.01937 12.2977 3.99957 12.115 3.92388C11.9322 3.84819 11.7761 3.72002 11.6662 3.55557C11.5563 3.39112 11.4977 3.19778 11.4977 3C11.4977 2.73478 11.603 2.48043 11.7906 2.29289C11.9781 2.10536 12.2324 2 12.4977 2Z" fill="#767676"/>
</svg>
