<svg width="16" height="17" viewBox="0 0 16 17" fill="none" xmlns="http://www.w3.org/2000/svg">
<path d="M9.20931 2.05001L10.4412 4.70692C10.6092 5.07677 11.0571 5.43152 11.4351 5.49945L13.6678 5.8995C15.0957 6.15614 15.4317 7.27325 14.4028 8.37526L12.667 10.2472C12.373 10.5642 12.212 11.1756 12.303 11.6134L12.8 13.9306C13.1919 15.7648 12.289 16.4743 10.7842 15.5157L8.69138 14.1797C8.31346 13.9382 7.69053 13.9382 7.30553 14.1797L5.21279 15.5157C3.71495 16.4743 2.80505 15.7572 3.19701 13.9306L3.69395 11.6134C3.78494 11.1756 3.62396 10.5642 3.32999 10.2472L1.59419 8.37526C0.5723 7.27325 0.901265 6.15614 2.3291 5.8995L4.56186 5.49945C4.93281 5.43152 5.38076 5.07677 5.54874 4.70692L6.7806 2.05001C7.45253 0.608331 8.54438 0.608331 9.20931 2.05001Z" fill="#FF8F3A" stroke="#FF8F3A" stroke-width="0.5" stroke-linecap="round" stroke-linejoin="round"/>
</svg>
